<svg xmlns="http://www.w3.org/2000/svg" viewBox="0 0 64 64" role="img" aria-label="SM monogram">
  <rect width="64" height="64" rx="14" fill="#121417"/>
  <path d="M17 41.5c3.4 2.6 7.3 4 11.1 4 5.2 0 8.2-2 8.2-5.2 0-2.8-2.1-4.1-7.4-5.3-7.7-1.8-11.2-4.8-11.2-10.2 0-6.3 5.2-10.6 13.1-10.6 4.8 0 9.1 1.4 12.6 4l-4.2 6.1c-2.8-1.9-5.6-2.9-8.5-2.9-3.6 0-5.7 1.4-5.7 3.8 0 2.1 1.8 3.3 7.1 4.6 8.1 2 11.6 5.1 11.6 10.8 0 7.2-5.8 12-15.4 12-5.7 0-11.2-1.9-15.4-5.4l4.1-5.7Z" fill="#f4efe7"/>
  <path d="M38.5 27.5 45 16h6v32h-7.1V29.8l-5.4 9.4-3.8-6.4 3.8-5.3Z" fill="#7f1d38"/>
</svg>
